<?xml version="1.0" encoding="UTF-8" standalone="no"?>
<!-- Created with Inkscape (http://www.inkscape.org/) -->

<svg
   xmlns:dc="http://purl.org/dc/elements/1.1/"
   xmlns:cc="http://creativecommons.org/ns#"
   xmlns:rdf="http://www.w3.org/1999/02/22-rdf-syntax-ns#"
   xmlns:svg="http://www.w3.org/2000/svg"
   xmlns="http://www.w3.org/2000/svg"
   xmlns:sodipodi="http://sodipodi.sourceforge.net/DTD/sodipodi-0.dtd"
   xmlns:inkscape="http://www.inkscape.org/namespaces/inkscape"
   width="34.657459mm"
   height="34.657459mm"
   viewBox="0 0 34.657459 34.65746"
   version="1.1"
   id="svg14159"
   inkscape:version="0.92.5 (2060ec1f9f, 2020-04-08)"
   sodipodi:docname="icon.svg">
  <defs
     id="defs14153" />
  <sodipodi:namedview
     id="base"
     pagecolor="#ffffff"
     bordercolor="#666666"
     borderopacity="1.0"
     inkscape:pageopacity="0.0"
     inkscape:pageshadow="2"
     inkscape:zoom="2.8"
     inkscape:cx="74.760095"
     inkscape:cy="83.58845"
     inkscape:document-units="mm"
     inkscape:current-layer="layer1"
     showgrid="false"
     fit-margin-top="2"
     fit-margin-left="2"
     fit-margin-right="2"
     fit-margin-bottom="2"
     inkscape:window-width="1920"
     inkscape:window-height="1024"
     inkscape:window-x="0"
     inkscape:window-y="0"
     inkscape:window-maximized="1" />
  <metadata
     id="metadata14156">
    <rdf:RDF>
      <cc:Work
         rdf:about="">
        <dc:format>image/svg+xml</dc:format>
        <dc:type
           rdf:resource="http://purl.org/dc/dcmitype/StillImage" />
        <dc:title />
      </cc:Work>
    </rdf:RDF>
  </metadata>
  <g
     inkscape:label="Layer 1"
     inkscape:groupmode="layer"
     id="layer1"
     transform="translate(-75.653415,-121.93336)">
    <g
       aria-label="MY
LOGO"
       style="font-style:normal;font-variant:normal;font-weight:normal;font-stretch:normal;font-size:3.52777767px;line-height:1.25;font-family:Arial;-inkscape-font-specification:Arial;letter-spacing:0px;word-spacing:0px;fill:#000000;fill-opacity:1;stroke:none;stroke-width:0.26458332"
       id="text4752">
      <path
         d="m 80.760124,125.64994 q 0.09878,0.29634 0.239889,0.762 0.155222,0.46567 0.324556,1.00189 0.169333,0.53622 0.338666,1.08656 0.169334,0.55033 0.324556,1.016 0.169333,-0.52211 0.352778,-1.07245 0.183444,-0.56444 0.352777,-1.07244 0.169334,-0.52211 0.310445,-0.97367 0.141111,-0.45155 0.254,-0.74789 h 1.439333 q 0.09878,1.143 0.183445,2.22956 0.09878,1.08655 0.155222,2.159 0.07055,1.05833 0.112889,2.14489 0.04233,1.07244 0.07055,2.20133 H 83.62468 l 0.08467,-6.78744 -1.072444,3.69711 h -1.27 l -1.030111,-3.69711 0.07056,6.78744 h -1.594556 q 0.04233,-1.07244 0.08467,-2.22956 0.05644,-1.15711 0.112889,-2.30011 0.05644,-1.143 0.127,-2.21544 0.08467,-1.07245 0.183444,-1.98967 z"
         style="font-style:normal;font-variant:normal;font-weight:bold;font-stretch:normal;font-size:14.11111069px;font-family:'Ubuntu Mono';-inkscape-font-specification:'Ubuntu Mono Bold';stroke-width:0.26458332"
         id="path4756" />
      <path
         d="m 89.127986,129.64339 q 0.155222,-0.32456 0.352778,-0.81845 0.211667,-0.49389 0.409222,-1.04422 0.211667,-0.55033 0.395111,-1.11478 0.197556,-0.56444 0.352778,-1.016 h 1.792111 q -0.268111,0.71967 -0.536222,1.397 -0.268111,0.67734 -0.564445,1.34056 -0.296333,0.66322 -0.634999,1.32644 -0.338667,0.64911 -0.733778,1.34056 v 3.33022 h -1.749778 v -3.31611 q -0.776111,-1.36878 -1.368778,-2.667 -0.578555,-1.31233 -1.114777,-2.75167 h 1.862666 q 0.324556,1.016 0.719667,2.07434 0.395111,1.04422 0.818444,1.91911 z"
         style="font-style:normal;font-variant:normal;font-weight:bold;font-stretch:normal;font-size:14.11111069px;font-family:'Ubuntu Mono';-inkscape-font-specification:'Ubuntu Mono Bold';stroke-width:0.26458332"
         id="path4758" />
      <path
         d="m 84.979346,152.02361 h -5.489222 v -8.73478 h 1.749778 v 7.29544 h 3.739444 z"
         style="font-style:normal;font-variant:normal;font-weight:bold;font-stretch:normal;font-size:14.11111069px;font-family:'Ubuntu Mono';-inkscape-font-specification:'Ubuntu Mono Bold';stroke-width:0.26458332"
         id="path4760" />
      <path
         d="m 87.688653,147.64916 q 0,0.635 0.04233,1.19945 0.05644,0.55033 0.197556,0.95955 0.155222,0.40923 0.423333,0.64911 0.268111,0.23989 0.719667,0.23989 0.437444,0 0.705555,-0.23989 0.282223,-0.23988 0.423334,-0.64911 0.155222,-0.42333 0.197555,-0.97366 0.05644,-0.55034 0.05644,-1.18534 0,-0.635 -0.05644,-1.18533 -0.04233,-0.56444 -0.197555,-0.97367 -0.141111,-0.40922 -0.409223,-0.64911 -0.268111,-0.23989 -0.719666,-0.23989 -0.451556,0 -0.719667,0.23989 -0.268111,0.23989 -0.423333,0.66323 -0.141111,0.40922 -0.197556,0.95955 -0.04233,0.55033 -0.04233,1.18533 z m -1.763889,0 q 0,-2.25777 0.832556,-3.40077 0.832555,-1.15711 2.314222,-1.15711 1.538111,0 2.342444,1.15711 0.804333,1.143 0.804333,3.40077 0,2.25778 -0.818444,3.41489 -0.818444,1.143 -2.314222,1.143 -1.538111,0 -2.356556,-1.143 -0.804333,-1.15711 -0.804333,-3.41489 z"
         style="font-style:normal;font-variant:normal;font-weight:bold;font-stretch:normal;font-size:14.11111069px;font-family:'Ubuntu Mono';-inkscape-font-specification:'Ubuntu Mono Bold';stroke-width:0.26458332"
         id="path4762" />
      <path
         d="m 97.001959,144.60116 q -0.620889,0 -1.044222,0.22578 -0.423333,0.22578 -0.705555,0.635 -0.268112,0.39511 -0.395112,0.95956 -0.112888,0.55033 -0.112888,1.22766 0,1.56634 0.493888,2.31423 0.493889,0.73377 1.453445,0.73377 0.155222,0 0.338667,-0.0141 0.183444,-0.0141 0.338666,-0.0423 v -3.18911 h 1.735667 v 4.36033 q -0.310445,0.11289 -0.973667,0.254 -0.649111,0.14111 -1.580444,0.14111 -0.818445,0 -1.481667,-0.28222 -0.649111,-0.29633 -1.114778,-0.86078 -0.465666,-0.57855 -0.719666,-1.42522 -0.254,-0.86078 -0.254,-1.98967 0,-1.11477 0.296333,-1.96144 0.296333,-0.86078 0.804333,-1.43933 0.508,-0.57856 1.199445,-0.86078 0.691444,-0.29633 1.481666,-0.29633 0.508,0 0.903111,0.0847 0.409223,0.0706 0.705556,0.16934 0.296333,0.0988 0.479778,0.21166 0.197555,0.11289 0.296333,0.16934 l -0.451555,1.38288 q -0.310445,-0.19755 -0.762,-0.35277 -0.451556,-0.15523 -0.931334,-0.15523 z"
         style="font-style:normal;font-variant:normal;font-weight:bold;font-stretch:normal;font-size:14.11111069px;font-family:'Ubuntu Mono';-inkscape-font-specification:'Ubuntu Mono Bold';stroke-width:0.26458332"
         id="path4764" />
      <path
         d="m 101.79971,147.64916 q 0,0.635 0.0423,1.19945 0.0564,0.55033 0.19756,0.95955 0.15522,0.40923 0.42333,0.64911 0.26811,0.23989 0.71967,0.23989 0.43744,0 0.70555,-0.23989 0.28223,-0.23988 0.42334,-0.64911 0.15522,-0.42333 0.19755,-0.97366 0.0564,-0.55034 0.0564,-1.18534 0,-0.635 -0.0564,-1.18533 -0.0423,-0.56444 -0.19755,-0.97367 -0.14111,-0.40922 -0.40922,-0.64911 -0.26812,-0.23989 -0.71967,-0.23989 -0.45156,0 -0.71967,0.23989 -0.26811,0.23989 -0.42333,0.66323 -0.14111,0.40922 -0.19756,0.95955 -0.0423,0.55033 -0.0423,1.18533 z m -1.76389,0 q 0,-2.25777 0.83256,-3.40077 0.83255,-1.15711 2.31422,-1.15711 1.53811,0 2.34244,1.15711 0.80434,1.143 0.80434,3.40077 0,2.25778 -0.81845,3.41489 -0.81844,1.143 -2.31422,1.143 -1.53811,0 -2.35656,-1.143 -0.80433,-1.15711 -0.80433,-3.41489 z"
         style="font-style:normal;font-variant:normal;font-weight:bold;font-stretch:normal;font-size:14.11111069px;font-family:'Ubuntu Mono';-inkscape-font-specification:'Ubuntu Mono Bold';stroke-width:0.26458332"
         id="path4766" />
    </g>
  </g>
</svg>
