<?xml version="1.0" encoding="UTF-8" standalone="no"?>
<!-- Created with Inkscape (http://www.inkscape.org/) -->

<svg
   xmlns:dc="http://purl.org/dc/elements/1.1/"
   xmlns:cc="http://creativecommons.org/ns#"
   xmlns:rdf="http://www.w3.org/1999/02/22-rdf-syntax-ns#"
   xmlns:svg="http://www.w3.org/2000/svg"
   xmlns="http://www.w3.org/2000/svg"
   xmlns:sodipodi="http://sodipodi.sourceforge.net/DTD/sodipodi-0.dtd"
   xmlns:inkscape="http://www.inkscape.org/namespaces/inkscape"
   width="34.657459mm"
   height="34.657459mm"
   viewBox="0 0 34.657459 34.65746"
   version="1.1"
   id="svg14159"
   inkscape:version="0.92.5 (2060ec1f9f, 2020-04-08)"
   sodipodi:docname="icon.svg">
  <defs
     id="defs14153" />
  <sodipodi:namedview
     id="base"
     pagecolor="#ffffff"
     bordercolor="#666666"
     borderopacity="1.0"
     inkscape:pageopacity="0.0"
     inkscape:pageshadow="2"
     inkscape:zoom="2.8"
     inkscape:cx="-104.88276"
     inkscape:cy="89.659879"
     inkscape:document-units="mm"
     inkscape:current-layer="layer1"
     showgrid="false"
     fit-margin-top="2"
     fit-margin-left="2"
     fit-margin-right="2"
     fit-margin-bottom="2"
     inkscape:window-width="1920"
     inkscape:window-height="1024"
     inkscape:window-x="0"
     inkscape:window-y="0"
     inkscape:window-maximized="1" />
  <metadata
     id="metadata14156">
    <rdf:RDF>
      <cc:Work
         rdf:about="">
        <dc:format>image/svg+xml</dc:format>
        <dc:type
           rdf:resource="http://purl.org/dc/dcmitype/StillImage" />
        <dc:title />
      </cc:Work>
    </rdf:RDF>
  </metadata>
  <g
     inkscape:label="Layer 1"
     inkscape:groupmode="layer"
     id="layer1"
     transform="translate(-75.653415,-121.93336)">
    <path
       style="opacity:1;fill:#10ffc2;fill-opacity:1;stroke:#ffffff;stroke-width:0.2;stroke-linecap:round;stroke-linejoin:round;stroke-miterlimit:4;stroke-dasharray:none;stroke-dashoffset:0;stroke-opacity:1"
       d="m 77.936849,121.81716 c -1.108001,0 -1.999878,0.89188 -1.999878,1.99988 v 30.96297 c 0,1.108 0.891877,1.99988 1.999878,1.99988 h 30.301511 c 1.108,0 1.99988,-0.89188 1.99988,-1.99988 v -30.96297 c 0,-1.108 -0.89188,-1.99988 -1.99988,-1.99988 z m 3.623034,5.43119 h 1.219048 c 0.05578,0.16734 0.123927,0.3825 0.203605,0.64544 0.08765,0.26295 0.178784,0.54574 0.274402,0.84853 0.09562,0.30278 0.191704,0.6096 0.28732,0.92036 0.09562,0.31075 0.18727,0.59746 0.274919,0.86041 0.09562,-0.29481 0.195104,-0.59771 0.29869,-0.90847 0.103585,-0.31872 0.203073,-0.6211 0.29869,-0.90796 0.09562,-0.29481 0.183352,-0.56977 0.263033,-0.82475 0.07968,-0.25498 0.151229,-0.46622 0.214974,-0.63356 h 1.219047 c 0.05578,0.64542 0.10774,1.27472 0.155546,1.88826 0.05578,0.61354 0.09939,1.22326 0.131258,1.82883 0.03984,0.59761 0.0717,1.20289 0.0956,1.81643 0.0239,0.60557 0.044,1.22755 0.05994,1.865 h -1.350822 l 0.07183,-5.749 -0.908472,3.13107 h -1.075386 l -0.872815,-3.13107 0.05995,5.749 h -1.350305 c 0.0239,-0.60557 0.04741,-1.23539 0.07131,-1.88877 0.03187,-0.65338 0.06373,-1.30279 0.0956,-1.94821 0.03187,-0.64541 0.06816,-1.27079 0.108004,-1.87637 0.04781,-0.60557 0.09926,-1.16724 0.155029,-1.68517 z m 5.426543,0 h 1.577681 c 0.183266,0.5737 0.386159,1.15939 0.609265,1.757 0.223106,0.58964 0.454456,1.13121 0.693498,1.62523 0.08765,-0.18327 0.187136,-0.4141 0.29869,-0.69298 0.119521,-0.27889 0.235196,-0.57395 0.346748,-0.8847 0.119522,-0.31076 0.230762,-0.62541 0.334347,-0.94413 0.111553,-0.31872 0.211041,-0.60544 0.29869,-0.86042 h 1.518253 c -0.151393,0.40638 -0.302842,0.80093 -0.454235,1.1834 -0.151394,0.38247 -0.310677,0.76083 -0.478008,1.13533 -0.167329,0.3745 -0.346718,0.74894 -0.537951,1.12344 -0.191234,0.36654 -0.398562,0.7449 -0.621668,1.13533 v 2.82102 h -1.48208 v -2.80913 c -0.438244,-0.7729 -0.824443,-1.52572 -1.159102,-2.25878 -0.326691,-0.74103 -0.641342,-1.51786 -0.944128,-2.33061 z m 2.832385,14.77275 c 0.86852,0 1.529678,0.32692 1.983858,0.9803 0.45418,0.64541 0.681612,1.60556 0.681612,2.88044 0,1.2749 -0.23135,2.23895 -0.693498,2.89233 -0.462147,0.64542 -1.115471,0.9679 -1.960087,0.9679 -0.86852,0 -1.533595,-0.32248 -1.995743,-0.9679 -0.45418,-0.65338 -0.681613,-1.61743 -0.681613,-2.89233 0,-1.27488 0.235267,-2.23503 0.705384,-2.88044 0.470116,-0.65338 1.123439,-0.9803 1.960087,-0.9803 z m 6.513814,0 c 0.286851,0 0.541705,0.024 0.764811,0.0718 0.231075,0.0399 0.430567,0.0874 0.597897,0.14314 0.167329,0.0558 0.302591,0.1156 0.406176,0.17932 0.111553,0.0637 0.195371,0.11177 0.251148,0.14366 l -0.382406,1.1715 c -0.175298,-0.11155 -0.39046,-0.21156 -0.645439,-0.2992 -0.254978,-0.0877 -0.518184,-0.13126 -0.789098,-0.13126 -0.350596,0 -0.645142,0.0637 -0.884184,0.1912 -0.239042,0.12749 -0.438535,0.30688 -0.597897,0.53795 -0.151394,0.2231 -0.262634,0.49363 -0.334346,0.81236 -0.06375,0.31075 -0.0956,0.65778 -0.0956,1.04024 0,0.88446 0.139181,1.53778 0.418063,1.96009 0.278882,0.41434 0.68962,0.62115 1.231449,0.62115 0.08765,0 0.183219,-0.004 0.286804,-0.0119 0.103585,-0.008 0.199156,-0.0197 0.286805,-0.0357 v -2.70113 H 98.317 v 3.69332 c -0.175298,0.0637 -0.450257,0.13528 -0.824756,0.21497 -0.366531,0.0797 -0.813044,0.11937 -1.338936,0.11937 -0.462149,0 -0.880205,-0.0794 -1.254704,-0.23874 -0.366531,-0.16733 -0.681182,-0.41043 -0.944128,-0.72916 -0.262947,-0.32669 -0.466357,-0.72907 -0.609782,-1.20716 -0.143426,-0.48605 -0.214974,-1.04772 -0.214974,-1.68517 0,-0.62947 0.0833,-1.18331 0.25063,-1.66139 0.16733,-0.48606 0.394762,-0.89237 0.681613,-1.21905 0.28685,-0.32669 0.625522,-0.5698 1.015958,-0.72916 0.390436,-0.16732 0.808492,-0.25114 1.254704,-0.25114 z m 5.438425,0 c 0.86852,0 1.52969,0.32692 1.98386,0.9803 0.45419,0.64541 0.6811,1.60556 0.6811,2.88044 0,1.2749 -0.23083,2.23895 -0.69299,2.89233 -0.46213,0.64542 -1.11546,0.9679 -1.96008,0.9679 -0.86852,0 -1.53411,-0.32248 -1.996262,-0.9679 -0.454178,-0.65338 -0.681096,-1.61743 -0.681096,-2.89233 0,-1.27488 0.235265,-2.23503 0.705384,-2.88044 0.470114,-0.65338 1.123434,-0.9803 1.960084,-0.9803 z m -20.067506,0.16743 h 1.48208 v 6.17895 h 3.167248 v 1.21905 h -4.649328 z m 8.115267,1.11156 c -0.254979,0 -0.457872,0.0676 -0.609265,0.20309 -0.151394,0.13546 -0.270986,0.32267 -0.358635,0.56172 -0.07968,0.23107 -0.135559,0.50212 -0.167431,0.81287 -0.0239,0.31075 -0.03617,0.64551 -0.03617,1.00407 0,0.35857 0.01227,0.69672 0.03617,1.01544 0.03187,0.31076 0.08774,0.5818 0.167431,0.81287 0.08765,0.23108 0.207241,0.41439 0.358635,0.54984 0.151393,0.13546 0.354286,0.20309 0.609265,0.20309 0.24701,0 0.446503,-0.0676 0.597896,-0.20309 0.159361,-0.13545 0.278436,-0.31876 0.358118,-0.54984 0.08765,-0.23904 0.143528,-0.514 0.167431,-0.82475 0.03187,-0.31075 0.04806,-0.64499 0.04806,-1.00356 0,-0.35856 -0.01619,-0.69332 -0.04806,-1.00407 -0.0239,-0.31872 -0.07978,-0.59368 -0.167431,-0.82476 -0.07968,-0.23107 -0.194839,-0.41437 -0.346232,-0.54983 -0.151394,-0.13546 -0.354804,-0.20309 -0.609782,-0.20309 z m 11.952239,0 c -0.25498,0 -0.45839,0.0676 -0.60978,0.20309 -0.15139,0.13546 -0.27099,0.32267 -0.35863,0.56172 -0.0797,0.23107 -0.13556,0.50212 -0.16744,0.81287 -0.0239,0.31075 -0.0357,0.64551 -0.0357,1.00407 0,0.35857 0.0118,0.69672 0.0357,1.01544 0.0319,0.31076 0.0877,0.5818 0.16744,0.81287 0.0876,0.23108 0.20724,0.41439 0.35863,0.54984 0.15139,0.13546 0.3548,0.20309 0.60978,0.20309 0.24701,0 0.44599,-0.0676 0.59738,-0.20309 0.15937,-0.13545 0.27896,-0.31876 0.35864,-0.54984 0.0876,-0.23904 0.14352,-0.514 0.16743,-0.82475 0.0319,-0.31075 0.0475,-0.64499 0.0475,-1.00356 0,-0.35856 -0.0157,-0.69332 -0.0475,-1.00407 -0.0239,-0.31872 -0.0797,-0.59368 -0.16743,-0.82476 -0.0797,-0.23107 -0.19536,-0.41437 -0.34675,-0.54983 -0.1514,-0.13546 -0.35429,-0.20309 -0.60927,-0.20309 z"
       id="rect4754"
       inkscape:connector-curvature="0" />
  </g>
</svg>
